<?xml version="1.0" encoding="utf-8"?>
<!-- Generator: Adobe Illustrator 24.2.0, SVG Export Plug-In . SVG Version: 6.00 Build 0)  -->
<svg version="1.1" id="Layer_1" xmlns="http://www.w3.org/2000/svg" xmlns:xlink="http://www.w3.org/1999/xlink" x="0px" y="0px"
	 viewBox="0 0 122.9 92.5" style="enable-background:new 0 0 122.9 92.5;" xml:space="preserve">
<style type="text/css">
	.st0{fill-rule:evenodd;clip-rule:evenodd;fill:#FFFDFD;}
</style>
<g>
	<path class="st0" d="M69.3,15h35.2c3.6,0,6.5,2.9,6.5,6.5v52.3c0,3.6-2.9,6.5-6.5,6.5H69.3c-3.6,0-6.5-2.9-6.5-6.5V21.4
		C62.8,17.9,65.8,15,69.3,15L69.3,15z M9.1,0h104.6c2.5,0,4.8,1,6.5,2.7c1.7,1.7,2.7,3.9,2.7,6.5v74.3c0,2.5-1,4.8-2.7,6.5
		c-1.7,1.7-3.9,2.7-6.5,2.7H9.1c-2.5,0-4.8-1-6.5-2.7S0,85.9,0,83.4V9.1c0-2.5,1-4.8,2.7-6.5C4.3,1,6.6,0,9.1,0L9.1,0z M47.9,71.7h4
		c1.4,0,2.6,1.2,2.6,2.6v3.3c0,1.4-1.2,2.6-2.6,2.6h-4c-1.4,0-2.6-1.2-2.6-2.6v-3.3C45.4,72.9,46.5,71.7,47.9,71.7L47.9,71.7z
		 M47.9,58.1h4c1.4,0,2.6,1.2,2.6,2.6v3.3c0,1.4-1.2,2.6-2.6,2.6h-4c-1.4,0-2.6-1.2-2.6-2.6v-3.3C45.4,59.2,46.5,58.1,47.9,58.1
		L47.9,58.1z M32.6,71.7h4c1.4,0,2.6,1.2,2.6,2.6v3.3c0,1.4-1.2,2.6-2.6,2.6h-4c-1.4,0-2.6-1.2-2.6-2.6v-3.3
		C30.1,72.9,31.2,71.7,32.6,71.7L32.6,71.7z M32.6,58.1h4c1.4,0,2.6,1.2,2.6,2.6v3.3c0,1.4-1.2,2.6-2.6,2.6h-4
		c-1.4,0-2.6-1.2-2.6-2.6v-3.3C30.1,59.2,31.2,58.1,32.6,58.1L32.6,58.1z M17.3,71.7h4c1.4,0,2.6,1.2,2.6,2.6v3.3
		c0,1.4-1.2,2.6-2.6,2.6h-4c-1.4,0-2.6-1.2-2.6-2.6v-3.3C14.8,72.9,15.9,71.7,17.3,71.7L17.3,71.7z M17.3,58.1h4
		c1.4,0,2.6,1.2,2.6,2.6v3.3c0,1.4-1.2,2.6-2.6,2.6h-4c-1.4,0-2.6-1.2-2.6-2.6v-3.3C14.8,59.2,15.9,58.1,17.3,58.1L17.3,58.1z
		 M20.3,15.4h28.6c2,0,3.8,0.8,5.2,2.2h0c1.3,1.3,2.2,3.2,2.2,5.2v19.7c0,2-0.8,3.9-2.2,5.2c-1.3,1.3-3.2,2.2-5.2,2.2H20.3
		c-2,0-3.9-0.8-5.2-2.2L15,47.5c-1.3-1.3-2-3.1-2-5V22.7c0-2,0.8-3.8,2.2-5.2l0,0C16.5,16.2,18.3,15.4,20.3,15.4L20.3,15.4z
		 M48.9,19.6H20.3c-0.9,0-1.6,0.3-2.2,0.9c-0.6,0.6-0.9,1.3-0.9,2.2v19.7c0,0.8,0.3,1.6,0.8,2.1l0.1,0.1c0.6,0.6,1.3,0.9,2.2,0.9
		h28.6c0.8,0,1.6-0.4,2.2-0.9c0.6-0.6,0.9-1.3,0.9-2.2V22.7c0-0.8-0.4-1.6-0.9-2.2C50.6,20,49.8,19.6,48.9,19.6L48.9,19.6z M113.7,5
		H9.1C8,5,7,5.4,6.2,6.2C5.4,7,5,8,5,9.1v74.3c0,1.1,0.5,2.2,1.2,2.9C7,87.1,8,87.6,9.1,87.6h104.6c1.1,0,2.2-0.5,2.9-1.2
		c0.8-0.8,1.2-1.8,1.2-2.9V9.1c0-1.1-0.5-2.2-1.2-2.9C115.9,5.4,114.9,5,113.7,5L113.7,5z M92.5,25c1.8,0.6,3.6,1.5,5.3,2.8
		c1.4,1.1,2.7,2.4,3.6,4c0.3,0.6,0.6,1.2,0.9,1.8c0.3,0.6,0.5,1.3,0.7,2c0.3,1,0.6,2.1,0.8,3.2c0.2,1.1,0.4,2.3,0.5,3.5
		c0.1,1.2,0.2,2.5,0.2,3.8c0,1.3,0,2.7-0.1,4.1c-0.1,0.9-0.2,1.7-0.3,2.6c0,0.3-0.2,0.4-0.5,0.4l-1.9,0c-0.3,0-0.5-0.2-0.5-0.5
		l0.3-2.6c0-0.8,0-1.6,0-2.4c0-1.7,0.1-3.3-0.1-5.1c-0.1-1.1-0.2-2.2-0.4-3.2c-0.2-1-0.4-2-0.7-2.9c-0.2-0.6-0.4-1.2-0.6-1.7l0,0
		c-0.2-0.5-0.5-1.1-0.8-1.5l0,0C98.2,32,97.2,31,96,30.1c-1.4-1.1-3-1.8-4.4-2.3c-1.3-0.5-2.7-0.7-4.1-0.7c-1.4,0-2.9,0.2-4.2,0.6
		c-0.5,0.2-1,0.3-1.5,0.5c-0.5,0.2-0.9,0.4-1.4,0.7c-0.3,0.2-0.7,0.2-1.1,0.1c-0.4-0.1-0.7-0.3-0.9-0.7c-0.2-0.3-0.2-0.7-0.1-1.1
		c0.1-0.4,0.3-0.7,0.7-0.9c0.5-0.3,1.1-0.6,1.7-0.8l0,0c0.6-0.2,1.2-0.5,1.7-0.6c1.7-0.5,3.4-0.7,5.1-0.7
		C89.2,24.2,90.9,24.5,92.5,25L92.5,25z M78.6,41.2c-0.1,1.2,0,2.4,0.1,3.7c0,0.5,0.1,0.9,0.1,1.4c0.1,0.9,0.1,1.8,0.1,2.7
		c0,0.8,0,1.7,0,2.5c0,0.7-0.1,2.1-0.2,3.3l0,0c-0.1,1.1-0.2,2.2-0.3,2.7c0,0.2-0.2,0.4-0.5,0.4l-1.9,0c-0.3,0-0.5-0.2-0.5-0.5
		l0-0.1c0.1-0.5,0.2-1.5,0.3-2.6c0.1-1.2,0.2-2.5,0.2-3.2c0-0.8,0-1.5,0-2.4c0-0.8-0.1-1.7-0.1-2.6c0-0.4-0.1-0.9-0.1-1.3
		c-0.1-1.5-0.2-2.9-0.1-4.3c0.2-1.4,0.6-2.9,1.5-4.5c0.2-0.4,0.4-0.7,0.7-1.1c0.2-0.3,0.5-0.7,0.8-1c0.3-0.3,0.8-0.7,1.2-1.1
		c0.4-0.3,0.7-0.5,1-0.7c0.5-0.3,1.1-0.5,1.6-0.7c0.5-0.2,1.1-0.4,1.7-0.5l0,0c0.6-0.1,1.1-0.2,1.7-0.3c0.6-0.1,1.1-0.1,1.7,0l0.1,0
		c0.4,0,0.7,0.2,0.9,0.5c0.2,0.3,0.4,0.6,0.4,1l0,0.1c0,0.4-0.2,0.7-0.5,0.9c-0.3,0.2-0.6,0.4-1,0.4c-0.4,0-0.8,0-1.3,0
		c-0.4,0-0.9,0.1-1.3,0.2c-0.4,0.1-0.9,0.3-1.3,0.4c-0.5,0.2-0.9,0.4-1.4,0.6c-0.3,0.2-0.5,0.4-0.7,0.5c-0.2,0.2-0.5,0.4-0.7,0.6
		c-0.2,0.2-0.4,0.5-0.6,0.7c-0.2,0.2-0.3,0.5-0.5,0.8C79.1,38.9,78.8,40,78.6,41.2L78.6,41.2z M73.6,49c-0.1,1.5-0.3,3-0.6,4
		c-0.1,0.4-0.2,0.7-0.3,1c-0.1,0.2-0.3,0.3-0.5,0.3l-2.1,0c-0.3,0-0.5-0.2-0.5-0.5c0-0.1,0-0.2,0.1-0.3c0.1-0.2,0.2-0.4,0.3-0.7
		c0.1-0.2,0.2-0.5,0.3-0.7c0.2-0.8,0.4-1.7,0.5-2.8c0.1-1,0-2.1-0.1-3.4c-0.3-1.4-0.4-2.7-0.5-3.9c-0.1-1.3,0-2.5,0.2-3.7
		c0.2-1.2,0.5-2.3,0.9-3.4c0.4-1.1,0.9-2.1,1.6-3l0,0c0.2-0.3,0.6-0.5,0.9-0.6c0.4-0.1,0.7,0,1.1,0.2l0,0c0.3,0.2,0.5,0.6,0.6,0.9
		c0.1,0.4,0,0.8-0.2,1.1c-0.5,0.7-0.9,1.5-1.2,2.4l0,0c-0.3,0.9-0.6,1.8-0.7,2.8c-0.1,1-0.2,2.1-0.1,3.2c0,1.1,0.2,2.2,0.4,3.4
		C73.6,46.4,73.6,47.7,73.6,49L73.6,49z M92.5,32.4l0.4,0.3c0.3,0.2,0.6,0.4,0.9,0.6l0.4,0.4c1.9,1.7,3.1,3.9,3.9,6.4
		c0.8,2.5,1.1,5.2,1.2,8c0,1.1,0,2.7-0.2,4.3c-0.1,1.8-0.3,3.7-0.4,4.9c0,0.3-0.2,0.4-0.5,0.4l-1.9,0c-0.3,0-0.5-0.2-0.5-0.5l0-0.1
		c0.2-1.2,0.3-3,0.4-4.8c0.1-1.6,0.2-3.2,0.2-4.3c0-2.5-0.3-4.9-1-7c-0.6-2.1-1.7-3.9-3.2-5.3L92,35.5L91.4,35L91,34.8
		c-0.3-0.2-0.6-0.5-0.6-0.9c-0.1-0.4,0-0.7,0.2-1.1l0,0c0.2-0.3,0.5-0.5,0.9-0.6C91.8,32.1,92.2,32.1,92.5,32.4L92.5,32.4z
		 M93.2,46.3c0.1,0.5,0.1,0.9,0.1,1.4c0.1,1.6,0.1,4.1,0.1,6.7c-0.1,2.5-0.2,5-0.4,6.7l0,0.3c0,0.3-0.2,0.4-0.5,0.4l-10.2,0
		c-0.3,0-0.5-0.2-0.5-0.5l0-0.1c0.1-1,0.1-2.5,0.1-4.2c0-2.2-0.1-4.6-0.2-6l-0.1-1.5l-0.1-1.5c0-0.7-0.1-1.5,0-2.2
		c0-0.7,0.1-1.5,0.2-2.1c0.4-1.9,1.4-3.3,2.6-4.2c0.8-0.6,1.7-0.9,2.6-0.9c0.9,0,1.9,0.2,2.8,0.8c1.3,0.8,2.5,2.4,3.2,4.9l0,0
		c0.1,0.2,0.1,0.5,0.2,0.8c0.1,0.3,0.1,0.5,0.2,0.8L93.2,46.3L93.2,46.3z"/>
</g>
</svg>
