<?xml version="1.0" encoding="utf-8"?>
<!-- Generator: Adobe Illustrator 24.2.0, SVG Export Plug-In . SVG Version: 6.00 Build 0)  -->
<svg version="1.1" id="Uploaded_to_svgrepo.com" xmlns="http://www.w3.org/2000/svg" xmlns:xlink="http://www.w3.org/1999/xlink"
	 x="0px" y="0px" viewBox="0 0 32 32" style="enable-background:new 0 0 32 32;" xml:space="preserve">
<style type="text/css">
	.st0{fill:#FFFFFF;}
</style>
<path class="st0" d="M2,30h28v-7H2V30z M12,26h8v1h-8V26z M17,8V2H2v20h28V8H17z M9,18H7v-2h2V18z M9,14H7v-2h2V14z M13,18h-2v-2h2
	V18z M13,14h-2v-2h2V14z M14,8H5V5h9V8z M17,18h-2v-2h2V18z M17,14h-2v-2h2V14z M21,18h-2v-2h2V18z M21,14h-2v-2h2V14z M25,18h-2v-2
	h2V18z M25,14h-2v-2h2V14z"/>
</svg>
