<?xml version="1.0" encoding="utf-8"?>
<!-- Generator: Adobe Illustrator 24.2.0, SVG Export Plug-In . SVG Version: 6.00 Build 0)  -->
<svg version="1.1" id="Layer_1" xmlns="http://www.w3.org/2000/svg" xmlns:xlink="http://www.w3.org/1999/xlink" x="0px" y="0px"
	 viewBox="0 0 1024 1024" style="enable-background:new 0 0 1024 1024;" xml:space="preserve">
<style type="text/css">
	.st0{fill:#FFFFFF;}
</style>
<path class="st0" d="M924.8,625.7l-65.5-56c3.1-19,4.7-38.4,4.7-57.8s-1.6-38.8-4.7-57.8l65.5-56c10.1-8.7,13.8-22.7,9.3-35.2
	l-0.9-2.6c-18-50.4-45-97.1-79.7-137.9l-1.8-2.1c-8.6-10.1-22.6-13.9-35.1-9.5l-81.3,28.9c-30-24.6-63.5-44-99.7-57.6l-15.7-85
	c-2.4-13.1-12.7-23.3-25.8-25.7l-2.7-0.5c-52.1-9.4-106.9-9.4-159,0l-2.7,0.5c-13.1,2.4-23.4,12.6-25.8,25.7l-15.8,85.4
	c-35.9,13.6-69.4,33-99,57.4l-81.9-29.1c-12.5-4.4-26.5-0.7-35.1,9.5l-1.8,2.1c-34.6,40.8-61.6,87.5-79.7,137.9l-0.9,2.6
	c-4.5,12.5-0.8,26.5,9.3,35.2l66.3,56.6c-3.1,18.8-4.6,38-4.6,57.1c0,19.2,1.5,38.4,4.6,57.1L99,625.5c-10.1,8.7-13.8,22.7-9.3,35.2
	l0.9,2.6c18.1,50.4,44.9,96.9,79.7,137.9l1.8,2.1c8.6,10.1,22.6,13.9,35.1,9.5l81.9-29.1c29.8,24.5,63.1,43.9,99,57.4l15.8,85.4
	c2.4,13.1,12.7,23.3,25.8,25.7l2.7,0.5c52.6,9.5,106.4,9.5,159,0l2.7-0.5c13.1-2.4,23.4-12.6,25.8-25.7l15.7-85
	c36.2-13.6,69.9-33,99.7-57.6l81.3,28.9c12.5,4.4,26.5,0.7,35.1-9.5l1.8-2.1c34.8-41.1,61.6-87.5,79.7-137.9l0.9-2.6
	C938.6,648.4,934.9,634.4,924.8,625.7L924.8,625.7z M788.3,465.9c2.5,15.1,3.8,30.6,3.8,46.1s-1.3,31-3.8,46.1l-6.6,40.1l74.7,63.9
	c-11.3,26.1-25.6,50.8-42.6,73.6L721,702.8l-31.4,25.8c-23.9,19.6-50.5,35-79.3,45.8l-38.1,14.3l-17.9,97c-28.2,3.2-56.8,3.2-85,0
	l-17.9-97.2L413.6,774c-28.5-10.8-55-26.2-78.7-45.7l-31.4-25.9l-93.4,33.2c-17-22.9-31.2-47.6-42.6-73.6l75.5-64.5l-6.5-40
	c-2.4-14.9-3.7-30.3-3.7-45.5c0-15.3,1.2-30.6,3.7-45.5l6.5-40L167.5,362c11.3-26.1,25.6-50.7,42.6-73.6l93.4,33.2l31.4-25.9
	c23.7-19.5,50.2-34.9,78.7-45.7l37.9-14.3l17.9-97.2c28.1-3.2,56.8-3.2,85,0l17.9,97l38.1,14.3c28.7,10.8,55.4,26.2,79.3,45.8
	l31.4,25.8l92.8-32.9c17,22.9,31.2,47.6,42.6,73.6L781.8,426L788.3,465.9z M512,326c-97.2,0-176,78.8-176,176s78.8,176,176,176
	s176-78.8,176-176S609.2,326,512,326z M591.2,581.2c-21,21-49.5,32.8-79.2,32.8c-29.9,0-58-11.7-79.2-32.8
	c-21-21-32.8-49.5-32.8-79.2c0-29.9,11.7-58,32.8-79.2C454,401.6,482.1,390,512,390c29.9,0,58,11.6,79.2,32.8
	c21,21,32.8,49.5,32.8,79.2C624,531.9,612.3,560,591.2,581.2z"/>
</svg>
